<svg width="46" height="62" viewBox="0 0 46 62" fill="none" xmlns="http://www.w3.org/2000/svg">
<path d="M2.38593 55.2546V60.4782C2.53766 60.5332 2.70041 60.5648 2.87042 60.5648H42.338V55.2546L22.3619 53.8194L2.38593 55.2546Z" fill="#9AD7FF"/>
<path d="M42.338 49.9444H2.87042C2.70041 49.9444 2.53766 49.976 2.3858 50.031V55.2546H42.338V49.9444Z" fill="#C2E7FF"/>
<path d="M6.7454 55.2546C6.7454 52.6466 4.86469 50.4791 2.38578 50.031C1.83335 50.231 1.43532 50.7604 1.43532 51.3796V59.1296C1.43532 59.7487 1.83347 60.2782 2.38578 60.4782C4.86469 60.0299 6.7454 57.8626 6.7454 55.2546Z" fill="#4EB9FF"/>
<path d="M2.1528 0C0.963906 0 2.21729e-08 0.963906 2.21729e-08 2.1528V51.3797L10.0463 49.9445L15.787 24.9723L10.0463 0H2.1528Z" fill="#FFC0D5"/>
<path d="M42.338 2.87041L34.301 0H10.0463V49.9444H40.9028L45.2084 37.6015V10.9075L42.338 2.87041Z" fill="#FF755C"/>
<path d="M33.9422 25.717H21.3125C20.5199 25.717 19.8773 25.0744 19.8773 24.2818C19.8773 23.4893 20.5199 22.8466 21.3125 22.8466H33.9422C34.7348 22.8466 35.3774 23.4893 35.3774 24.2818C35.3774 25.0744 34.7346 25.717 33.9422 25.717Z" fill="#FFC0D5"/>
<path d="M36.2385 19.9763H19.0162C18.2236 19.9763 17.581 19.3337 17.581 18.5411C17.581 17.7486 18.2236 17.1059 19.0162 17.1059H36.2384C37.031 17.1059 37.6736 17.7486 37.6736 18.5411C37.6736 19.3337 37.031 19.9763 36.2385 19.9763Z" fill="#FFC0D5"/>
<path d="M45.2084 49.9444L34.301 48.5093L45.2084 37.6019V49.9444Z" fill="#FFCE47"/>
<path d="M45.2084 0V10.9074L34.301 0H45.2084Z" fill="#FFCE47"/>
<path d="M43.7732 59.1296H2.87041V51.3796H43.7732C44.5658 51.3796 45.2084 50.737 45.2084 49.9444C45.2084 49.1518 44.5658 48.5092 43.7732 48.5092H2.87041C1.28771 48.5092 2.21729e-08 49.7968 2.21729e-08 51.3796V59.1296C2.21729e-08 60.7123 1.28759 62 2.87041 62H43.7732C44.5658 62 45.2084 61.3574 45.2084 60.5648C45.2084 59.7724 44.5656 59.1296 43.7732 59.1296Z" fill="#FF4181"/>
</svg>
