<svg width="136" height="136" viewBox="0 0 136 136" fill="none" xmlns="http://www.w3.org/2000/svg">
<g filter="url(#filter0_d_0_661)">
<circle cx="68" cy="64" r="54" fill="#1AB0CE"/>
</g>
<path d="M25.2686 71V61.5391H32.9111V71H30.9355V63.1865H27.2373V71H25.2686ZM36.3838 67.876C36.4157 68.514 36.5706 68.972 36.8486 69.25C37.1266 69.528 37.5641 69.667 38.1611 69.667C38.5075 69.667 38.8105 69.6237 39.0703 69.5371C39.3346 69.4505 39.5648 69.2842 39.7607 69.0381L41.0732 69.9746C40.7861 70.3893 40.4124 70.6992 39.9521 70.9043C39.4964 71.1094 38.8721 71.2119 38.0791 71.2119C36.8988 71.2119 36.0169 70.902 35.4336 70.2822C34.8548 69.6624 34.5654 68.7259 34.5654 67.4727C34.5654 64.9069 35.7139 63.624 38.0107 63.624C39.0316 63.624 39.8086 63.9134 40.3418 64.4922C40.8796 65.0664 41.1484 65.9049 41.1484 67.0078V67.876H36.3838ZM39.3984 66.6592C39.3984 65.57 38.9222 65.0254 37.9697 65.0254C37.6553 65.0254 37.3978 65.0801 37.1973 65.1895C36.9967 65.2943 36.835 65.4538 36.7119 65.668C36.5934 65.8776 36.5 66.208 36.4316 66.6592H39.3984ZM49.4404 67.3633C49.4404 68.1335 49.3242 68.8125 49.0918 69.4004C48.8594 69.9883 48.5267 70.4372 48.0938 70.7471C47.6608 71.057 47.1436 71.2119 46.542 71.2119C45.749 71.2119 45.0723 70.9635 44.5117 70.4668V73.7002H42.748V63.8291H44.375V64.5332C44.7031 64.2507 45.0472 64.0296 45.4072 63.8701C45.7718 63.7061 46.1888 63.624 46.6582 63.624C47.5651 63.624 48.2555 63.943 48.7295 64.5811C49.2035 65.2191 49.4404 66.1465 49.4404 67.3633ZM47.6221 67.3906C47.6221 66.6934 47.5013 66.151 47.2598 65.7637C47.0182 65.3717 46.6582 65.1758 46.1797 65.1758C45.8926 65.1758 45.5964 65.2441 45.291 65.3809C44.9902 65.513 44.7305 65.6771 44.5117 65.873V69.0107C44.6986 69.1794 44.9287 69.3298 45.2021 69.4619C45.4801 69.5895 45.765 69.6533 46.0566 69.6533C46.5397 69.6533 46.9202 69.4482 47.1982 69.0381C47.4808 68.6234 47.6221 68.0742 47.6221 67.3906ZM52.5303 67.876C52.5622 68.514 52.7171 68.972 52.9951 69.25C53.2731 69.528 53.7106 69.667 54.3076 69.667C54.654 69.667 54.957 69.6237 55.2168 69.5371C55.4811 69.4505 55.7113 69.2842 55.9072 69.0381L57.2197 69.9746C56.9326 70.3893 56.5589 70.6992 56.0986 70.9043C55.6429 71.1094 55.0186 71.2119 54.2256 71.2119C53.0452 71.2119 52.1634 70.902 51.5801 70.2822C51.0013 69.6624 50.7119 68.7259 50.7119 67.4727C50.7119 64.9069 51.8604 63.624 54.1572 63.624C55.1781 63.624 55.9551 63.9134 56.4883 64.4922C57.026 65.0664 57.2949 65.9049 57.2949 67.0078V67.876H52.5303ZM55.5449 66.6592C55.5449 65.57 55.0687 65.0254 54.1162 65.0254C53.8018 65.0254 53.5443 65.0801 53.3438 65.1895C53.1432 65.2943 52.9814 65.4538 52.8584 65.668C52.7399 65.8776 52.6465 66.208 52.5781 66.6592H55.5449ZM59.5166 66.7139H61.041C61.4785 66.7139 61.793 66.6683 61.9844 66.5771C62.1758 66.4814 62.2715 66.2718 62.2715 65.9482C62.2715 65.6201 62.1689 65.3923 61.9639 65.2646C61.7588 65.1325 61.4603 65.0664 61.0684 65.0664C60.6947 65.0664 60.3916 65.1257 60.1592 65.2441C59.9268 65.3581 59.7308 65.5221 59.5713 65.7363L58.3203 64.8545C58.5755 64.4352 58.9424 64.1253 59.4209 63.9248C59.904 63.7243 60.4531 63.624 61.0684 63.624C62.112 63.624 62.8753 63.8359 63.3584 64.2598C63.846 64.6836 64.0898 65.2419 64.0898 65.9346C64.0898 66.2581 64.0101 66.5498 63.8506 66.8096C63.6956 67.0648 63.4587 67.263 63.1396 67.4043C63.4541 67.5182 63.7139 67.7256 63.9189 68.0264C64.1286 68.3271 64.2334 68.6416 64.2334 68.9697C64.2334 69.6898 63.9645 70.2435 63.4268 70.6309C62.889 71.0182 62.0801 71.2119 61 71.2119C59.6966 71.2119 58.7715 70.7995 58.2246 69.9746L59.5576 69.0381C59.7627 69.3024 59.9792 69.4893 60.207 69.5986C60.4349 69.7035 60.6992 69.7559 61 69.7559C61.4102 69.7559 61.7474 69.6829 62.0117 69.5371C62.276 69.3913 62.4082 69.1794 62.4082 68.9014C62.4082 68.5824 62.3171 68.3499 62.1348 68.2041C61.957 68.0537 61.6152 67.9785 61.1094 67.9785H59.5166V66.7139ZM72.0469 68.8604C72.0469 69.5394 71.7826 70.0658 71.2539 70.4395C70.7253 70.8132 69.9163 71 68.8271 71H65.6895V63.8291H68.6016C69.6452 63.8291 70.3971 63.9613 70.8574 64.2256C71.3223 64.4854 71.5547 64.9229 71.5547 65.5381C71.5547 65.9482 71.4362 66.2809 71.1992 66.5361C70.9622 66.7868 70.6888 66.9782 70.3789 67.1104C70.8665 67.2106 71.2653 67.3997 71.5752 67.6777C71.8896 67.9512 72.0469 68.3454 72.0469 68.8604ZM69.791 65.8184C69.791 65.5312 69.6748 65.3376 69.4424 65.2373C69.21 65.1325 68.8636 65.0801 68.4033 65.0801H67.4395V66.6182H68.4785C68.9707 66.6182 69.3125 66.5566 69.5039 66.4336C69.6953 66.306 69.791 66.1009 69.791 65.8184ZM70.2285 68.7715C70.2285 68.4206 70.1009 68.1813 69.8457 68.0537C69.5951 67.9261 69.2077 67.8623 68.6836 67.8623H67.4395V69.7422H68.4648C68.9935 69.7422 69.4196 69.6784 69.7432 69.5508C70.0667 69.4232 70.2285 69.1634 70.2285 68.7715ZM80.1201 67.4316C80.1201 68.6257 79.8444 69.5553 79.293 70.2207C78.7415 70.8815 77.8734 71.2119 76.6885 71.2119C74.3916 71.2119 73.2432 69.9518 73.2432 67.4316C73.2432 66.2194 73.5189 65.2829 74.0703 64.6221C74.6217 63.9567 75.4945 63.624 76.6885 63.624C77.8734 63.624 78.7415 63.9567 79.293 64.6221C79.8444 65.2829 80.1201 66.2194 80.1201 67.4316ZM78.2949 67.4316C78.2949 66.6432 78.1719 66.069 77.9258 65.709C77.6797 65.3444 77.2673 65.1621 76.6885 65.1621C76.1143 65.1621 75.6995 65.349 75.4443 65.7227C75.1891 66.0918 75.0615 66.6615 75.0615 67.4316C75.0615 68.1973 75.1868 68.7624 75.4375 69.127C75.6927 69.487 76.1097 69.667 76.6885 69.667C77.2581 69.667 77.6683 69.4893 77.9189 69.1338C78.1696 68.7738 78.2949 68.2064 78.2949 67.4316ZM88.0703 71H86.3066V67.9785H83.4082V71H81.6445V63.8291H83.4082V66.6592H86.3066V63.8291H88.0703V71ZM91.5293 71H89.8613V63.8291H91.4609V68.6758L94.7764 63.8291H96.458V71H94.8584V66.167L91.5293 71ZM104.039 65.1074H101.605V71H99.8555V65.1074H97.4014V63.8291H104.039V65.1074ZM106.384 67.876C106.416 68.514 106.571 68.972 106.849 69.25C107.127 69.528 107.564 69.667 108.161 69.667C108.507 69.667 108.811 69.6237 109.07 69.5371C109.335 69.4505 109.565 69.2842 109.761 69.0381L111.073 69.9746C110.786 70.3893 110.412 70.6992 109.952 70.9043C109.496 71.1094 108.872 71.2119 108.079 71.2119C106.899 71.2119 106.017 70.902 105.434 70.2822C104.855 69.6624 104.565 68.7259 104.565 67.4727C104.565 64.9069 105.714 63.624 108.011 63.624C109.032 63.624 109.809 63.9134 110.342 64.4922C110.88 65.0664 111.148 65.9049 111.148 67.0078V67.876H106.384ZM109.398 66.6592C109.398 65.57 108.922 65.0254 107.97 65.0254C107.655 65.0254 107.398 65.0801 107.197 65.1895C106.997 65.2943 106.835 65.4538 106.712 65.668C106.593 65.8776 106.5 66.208 106.432 66.6592H109.398ZM37.0127 90H35.4541V84.8867L33.6631 88.209H32.6992L30.833 84.8867V90H29.2812V82.8291H31.2432L33.2188 86.2334L35.0918 82.8291H37.0127V90ZM45.2363 90H43.4727V86.9785H40.5742V90H38.8105V82.8291H40.5742V85.6592H43.4727V82.8291H45.2363V90ZM48.5791 86.876C48.611 87.514 48.766 87.972 49.0439 88.25C49.3219 88.528 49.7594 88.667 50.3564 88.667C50.7028 88.667 51.0059 88.6237 51.2656 88.5371C51.5299 88.4505 51.7601 88.2842 51.9561 88.0381L53.2686 88.9746C52.9814 89.3893 52.6077 89.6992 52.1475 89.9043C51.6917 90.1094 51.0674 90.2119 50.2744 90.2119C49.0941 90.2119 48.2122 89.902 47.6289 89.2822C47.0501 88.6624 46.7607 87.7259 46.7607 86.4727C46.7607 83.9069 47.9092 82.624 50.2061 82.624C51.2269 82.624 52.0039 82.9134 52.5371 83.4922C53.0749 84.0664 53.3438 84.9049 53.3438 86.0078V86.876H48.5791ZM51.5938 85.6592C51.5938 84.57 51.1175 84.0254 50.165 84.0254C49.8506 84.0254 49.5931 84.0801 49.3926 84.1895C49.1921 84.2943 49.0303 84.4538 48.9072 84.668C48.7887 84.8776 48.6953 85.208 48.627 85.6592H51.5938ZM64.2334 88.9746C63.96 89.3802 63.5999 89.6878 63.1533 89.8975C62.7067 90.1071 62.1416 90.2119 61.458 90.2119C60.3005 90.2119 59.4255 89.8975 58.833 89.2686C58.2406 88.6351 57.9443 87.6986 57.9443 86.459C57.9443 85.2513 58.2314 84.3102 58.8057 83.6357C59.3799 82.9613 60.2412 82.624 61.3896 82.624C62.0049 82.624 62.5518 82.7243 63.0303 82.9248C63.5133 83.1253 63.8802 83.4352 64.1309 83.8545L62.8184 84.791C62.6589 84.5768 62.472 84.4196 62.2578 84.3193C62.0436 84.2145 61.7679 84.1621 61.4307 84.1621C60.8291 84.1621 60.4007 84.3467 60.1455 84.7158C59.8903 85.085 59.7627 85.6569 59.7627 86.4316C59.7627 87.2064 59.8926 87.7738 60.1523 88.1338C60.4167 88.4893 60.8656 88.667 61.499 88.667C61.7725 88.667 62.0231 88.6283 62.251 88.5508C62.4788 88.4733 62.6953 88.3024 62.9004 88.0381L64.2334 88.9746ZM67.0088 86.876C67.0407 87.514 67.1956 87.972 67.4736 88.25C67.7516 88.528 68.1891 88.667 68.7861 88.667C69.1325 88.667 69.4355 88.6237 69.6953 88.5371C69.9596 88.4505 70.1898 88.2842 70.3857 88.0381L71.6982 88.9746C71.4111 89.3893 71.0374 89.6992 70.5771 89.9043C70.1214 90.1094 69.4971 90.2119 68.7041 90.2119C67.5238 90.2119 66.6419 89.902 66.0586 89.2822C65.4798 88.6624 65.1904 87.7259 65.1904 86.4727C65.1904 83.9069 66.3389 82.624 68.6357 82.624C69.6566 82.624 70.4336 82.9134 70.9668 83.4922C71.5046 84.0664 71.7734 84.9049 71.7734 86.0078V86.876H67.0088ZM70.0234 85.6592C70.0234 84.57 69.5472 84.0254 68.5947 84.0254C68.2803 84.0254 68.0228 84.0801 67.8223 84.1895C67.6217 84.2943 67.46 84.4538 67.3369 84.668C67.2184 84.8776 67.125 85.208 67.0566 85.6592H70.0234ZM74.9453 90H73.2773V82.8291H74.877V87.6758L78.1924 82.8291H79.874V90H78.2744V85.167L74.9453 90ZM79.0605 79.9785C79.0605 80.3294 78.9557 80.6507 78.7461 80.9424C78.541 81.2295 78.2493 81.4574 77.8711 81.626C77.4974 81.7946 77.0667 81.8789 76.5791 81.8789C76.1097 81.8789 75.6882 81.7969 75.3145 81.6328C74.9408 81.4688 74.6491 81.2386 74.4395 80.9424C74.2344 80.6462 74.1318 80.3249 74.1318 79.9785H75.6426C75.6426 80.6576 75.9593 80.9971 76.5928 80.9971C76.8571 80.9971 77.0827 80.9242 77.2695 80.7783C77.4564 80.6279 77.5498 80.3613 77.5498 79.9785H79.0605ZM81.3232 82.8291H83.0732V84.75C83.0732 85.1784 83.1051 85.4928 83.1689 85.6934C83.2327 85.8939 83.3376 86.0374 83.4834 86.124C83.6338 86.2061 83.8844 86.2471 84.2354 86.2471C84.7048 86.2471 85.2699 86.2015 85.9307 86.1104V82.8291H87.6807V90H85.9307V87.3135C85.5934 87.3682 85.2471 87.4229 84.8916 87.4775C84.5407 87.5277 84.224 87.5527 83.9414 87.5527C82.9753 87.5527 82.2962 87.3727 81.9043 87.0127C81.5169 86.6527 81.3232 86.0283 81.3232 85.1396V82.8291ZM93.8057 90V89.2549C93.1084 89.8929 92.361 90.2119 91.5635 90.2119C90.7705 90.2119 90.1712 90.0046 89.7656 89.5898C89.36 89.1706 89.1572 88.6351 89.1572 87.9834C89.1572 87.473 89.2598 87.0514 89.4648 86.7188C89.6745 86.3861 89.9821 86.1263 90.3877 85.9395C90.7979 85.748 91.3857 85.6136 92.1514 85.5361L93.6621 85.3926V85.0713C93.6621 84.6702 93.5413 84.3968 93.2998 84.251C93.0583 84.1006 92.7051 84.0254 92.2402 84.0254C91.8574 84.0254 91.527 84.0892 91.249 84.2168C90.9756 84.3444 90.7728 84.5267 90.6406 84.7637L89.2666 83.8818C89.5081 83.4762 89.8864 83.1663 90.4014 82.9521C90.9163 82.7334 91.5384 82.624 92.2676 82.624C93.3841 82.624 94.1885 82.82 94.6807 83.2119C95.1774 83.5993 95.4258 84.2373 95.4258 85.126V90H93.8057ZM93.6621 86.6709L92.7666 86.7529C92.1331 86.8076 91.6751 86.9284 91.3926 87.1152C91.1146 87.3021 90.9756 87.5824 90.9756 87.9561C90.9756 88.2842 91.0667 88.5098 91.249 88.6328C91.4313 88.7513 91.6729 88.8105 91.9736 88.8105C92.1878 88.8105 92.4476 88.7445 92.7529 88.6123C93.0628 88.4756 93.3659 88.2842 93.6621 88.0381V86.6709ZM103.294 88.9746C103.021 89.3802 102.66 89.6878 102.214 89.8975C101.767 90.1071 101.202 90.2119 100.519 90.2119C99.361 90.2119 98.486 89.8975 97.8936 89.2686C97.3011 88.6351 97.0049 87.6986 97.0049 86.459C97.0049 85.2513 97.292 84.3102 97.8662 83.6357C98.4404 82.9613 99.3018 82.624 100.45 82.624C101.065 82.624 101.612 82.7243 102.091 82.9248C102.574 83.1253 102.941 83.4352 103.191 83.8545L101.879 84.791C101.719 84.5768 101.533 84.4196 101.318 84.3193C101.104 84.2145 100.828 84.1621 100.491 84.1621C99.8896 84.1621 99.4613 84.3467 99.2061 84.7158C98.9508 85.085 98.8232 85.6569 98.8232 86.4316C98.8232 87.2064 98.9531 87.7738 99.2129 88.1338C99.4772 88.4893 99.9261 88.667 100.56 88.667C100.833 88.667 101.084 88.6283 101.312 88.5508C101.539 88.4733 101.756 88.3024 101.961 88.0381L103.294 88.9746ZM106.363 86.9922H104.894L104.661 80.5391H106.575L106.363 86.9922ZM106.732 89.0498C106.732 89.4417 106.644 89.7152 106.466 89.8701C106.288 90.0205 106.003 90.0957 105.611 90.0957C105.183 90.0957 104.891 90.0114 104.736 89.8428C104.581 89.6696 104.504 89.4053 104.504 89.0498C104.504 88.6761 104.586 88.4072 104.75 88.2432C104.914 88.0791 105.201 87.9971 105.611 87.9971C106.031 87.9971 106.322 88.0768 106.486 88.2363C106.65 88.3958 106.732 88.667 106.732 89.0498Z" fill="white"/>
<path fill-rule="evenodd" clip-rule="evenodd" d="M78.9993 49.2199V52.6823C79.0019 53.3323 78.7299 53.9532 78.25 54.3926C77.7701 54.832 77.1269 55.0491 76.4783 54.9906C72.9197 54.6047 69.5015 53.3911 66.4982 51.4474C63.7041 49.6754 61.3352 47.3112 59.5596 44.5226C57.6052 41.5116 56.389 38.0836 56.0094 34.5161C55.951 33.8708 56.167 33.2307 56.6047 32.7522C57.0424 32.2736 57.6615 32.0007 58.3107 32.0001H61.78C62.9409 31.9887 63.9304 32.838 64.0929 33.9852C64.2393 35.0933 64.5109 36.1813 64.9024 37.2284C65.2201 38.0719 65.0169 39.0228 64.382 39.6636L62.9133 41.1294C64.5595 44.0188 66.9567 46.4112 69.8519 48.0542L71.3206 46.5885C71.9626 45.9548 72.9154 45.752 73.7606 46.0691C74.8098 46.4598 75.9 46.7309 77.0102 46.877C78.1731 47.0407 79.0284 48.0482 78.9993 49.2199Z" stroke="white" stroke-width="2" stroke-linecap="round" stroke-linejoin="round"/>
<defs>
<filter id="filter0_d_0_661" x="0" y="0" width="136" height="136" filterUnits="userSpaceOnUse" color-interpolation-filters="sRGB">
<feFlood flood-opacity="0" result="BackgroundImageFix"/>
<feColorMatrix in="SourceAlpha" type="matrix" values="0 0 0 0 0 0 0 0 0 0 0 0 0 0 0 0 0 0 127 0" result="hardAlpha"/>
<feOffset dy="4"/>
<feGaussianBlur stdDeviation="7"/>
<feColorMatrix type="matrix" values="0 0 0 0 0 0 0 0 0 0 0 0 0 0 0 0 0 0 0.05 0"/>
<feBlend mode="normal" in2="BackgroundImageFix" result="effect1_dropShadow_0_661"/>
<feBlend mode="normal" in="SourceGraphic" in2="effect1_dropShadow_0_661" result="shape"/>
</filter>
</defs>
</svg>
