<svg width="67" height="62" viewBox="0 0 67 62" fill="none" xmlns="http://www.w3.org/2000/svg">
<path d="M22.3319 39.4553C22.3319 27.0043 32.3324 16.9096 44.6659 16.9096C57.0015 16.9096 67 27.0043 67 39.4553C67 51.9064 57.0015 62 44.6659 62C32.3324 61.9999 22.3319 51.9063 22.3319 39.4553Z" fill="#4FC2E9"/>
<path d="M0 39.4553C0 27.0043 9.9985 16.9096 22.3319 16.9096C34.6675 16.9096 44.666 27.0043 44.666 39.4553C44.666 51.9064 34.6675 62 22.3319 62C9.99837 61.9999 0 51.9063 0 39.4553Z" fill="#EC87C0"/>
<path d="M33.4999 19.9263C26.824 23.8255 22.3319 31.1109 22.3319 39.4552C22.3319 47.7985 26.824 55.0849 33.4999 58.982C40.1738 55.0849 44.6659 47.7984 44.6659 39.4552C44.6659 31.1109 40.1737 23.8255 33.4999 19.9263Z" fill="#5D9CEC"/>
<path d="M33.4999 45.0904C21.1644 45.0904 11.166 34.9967 11.166 22.5468C11.1659 10.0947 21.1644 -1.20974e-07 33.4999 -1.20974e-07C45.8335 -1.20974e-07 55.832 10.0947 55.832 22.5468C55.8319 34.9968 45.8335 45.0904 33.4999 45.0904Z" fill="#FFCE54"/>
<path d="M22.3319 39.4553C22.3319 40.372 22.3891 41.2759 22.4934 42.1676C25.7424 44.0295 29.4985 45.0904 33.4999 45.0904C45.8335 45.0904 55.832 34.9967 55.832 22.5468C55.832 21.6283 55.7767 20.7231 55.6724 19.8346C52.4235 17.9737 48.6672 16.9096 44.6659 16.9096C32.3324 16.9095 22.3319 27.0043 22.3319 39.4553Z" fill="#A0D468"/>
<path d="M22.3319 16.9095C18.3305 16.9095 14.5765 17.9736 11.3274 19.8345C11.2211 20.7231 11.1659 21.6282 11.1659 22.5467C11.1659 34.9967 21.1644 45.0903 33.4998 45.0903C37.5012 45.0903 41.2573 44.0294 44.5043 42.1674C44.6106 41.2758 44.6658 40.3717 44.6658 39.4552C44.666 27.0043 34.6675 16.9095 22.3319 16.9095Z" fill="#ED5564"/>
<path d="M34.1337 45.0821C34.3014 45.078 34.469 45.0696 34.6368 45.0615C34.6553 45.0615 34.6736 45.0615 34.6942 45.0574C34.8455 45.0492 34.9947 45.0408 35.1458 45.0284C35.1867 45.0284 35.2297 45.0243 35.2706 45.0202C35.4321 45.0078 35.5938 44.9954 35.7553 44.979C35.788 44.9749 35.8228 44.9708 35.8555 44.9666C35.9924 44.9501 36.1274 44.9376 36.2622 44.9211C36.3051 44.9129 36.3481 44.9087 36.391 44.9046C36.5465 44.884 36.7019 44.8591 36.8553 44.8385C36.9003 44.8303 36.9473 44.822 36.9923 44.8179C37.1149 44.7974 37.2355 44.7767 37.3562 44.7561C37.403 44.7479 37.4502 44.7396 37.4971 44.7312C37.6444 44.7023 37.7895 44.6734 37.9368 44.6446C37.992 44.6364 38.0473 44.6239 38.1025 44.6115C38.2128 44.5867 38.3212 44.562 38.4296 44.5373C38.4808 44.5291 38.5317 44.5167 38.5829 44.5042C38.7219 44.4712 38.8589 44.4382 38.996 44.401C39.0614 44.3845 39.1248 44.368 39.1902 44.3515C39.2863 44.3266 39.3823 44.2978 39.4784 44.273C39.5664 44.2482 39.6562 44.2236 39.7441 44.1946C39.8423 44.1698 39.9384 44.141 40.0346 44.108C40.1062 44.0873 40.1797 44.0625 40.2513 44.0419C40.3331 44.013 40.417 43.9882 40.4987 43.9593C40.6111 43.9222 40.7236 43.885 40.836 43.8437C40.9076 43.8188 40.9771 43.7941 41.0487 43.7694C41.1284 43.7406 41.2082 43.7117 41.2859 43.6829C41.3534 43.658 41.4188 43.6333 41.4843 43.6044C41.6151 43.5548 41.7459 43.5053 41.8767 43.4516C41.9298 43.4268 41.9851 43.4062 42.0382 43.3815C42.1241 43.3484 42.2099 43.3113 42.2938 43.2742C42.3287 43.2577 42.3633 43.2452 42.3982 43.2287C42.5577 43.1586 42.7171 43.0884 42.8746 43.0141C42.9196 42.9935 42.9624 42.9729 43.0075 42.9522C43.2877 42.8159 43.5658 42.6755 43.8396 42.531C43.8764 42.5145 43.9132 42.4939 43.9501 42.4732C44.134 42.3741 44.3161 42.275 44.4981 42.1718C44.5002 42.1677 44.5022 42.1677 44.5043 42.1677C44.6106 41.276 44.6658 40.3719 44.6658 39.4554C44.6658 31.1112 40.1737 23.8257 33.4998 19.9265C26.8239 23.8257 22.3318 31.1112 22.3318 39.4554C22.3318 40.3721 22.389 41.276 22.4933 42.1677C22.5014 42.1718 22.5118 42.1759 22.5199 42.1801C22.6937 42.2792 22.8695 42.3783 23.0474 42.4733C23.0841 42.4939 23.123 42.5145 23.1598 42.5353C23.4337 42.6797 23.7098 42.8159 23.9899 42.9481C24.0348 42.9729 24.0798 42.9935 24.1248 43.0141C24.2782 43.0842 24.4336 43.1545 24.589 43.2246C24.6278 43.2411 24.6667 43.2577 24.7056 43.2742C24.7895 43.3113 24.8733 43.3484 24.9591 43.3815C25.0144 43.4063 25.0696 43.4269 25.1247 43.4516C25.2515 43.5053 25.3824 43.5548 25.5112 43.6044C25.5788 43.6292 25.6442 43.658 25.7116 43.6829C25.7913 43.7118 25.8712 43.7407 25.9509 43.7694C26.0204 43.7943 26.092 43.819 26.1636 43.8437C26.2739 43.8849 26.3865 43.9222 26.4989 43.9593C26.5807 43.9882 26.6645 44.013 26.7484 44.0419C26.8198 44.0667 26.8914 44.0873 26.9651 44.108C27.0612 44.141 27.1573 44.1699 27.2554 44.1989C27.3434 44.2237 27.4312 44.2483 27.5192 44.2731C27.6153 44.298 27.7113 44.3268 27.8095 44.3516C27.8729 44.3681 27.9383 44.3846 28.0037 44.4012C28.1387 44.4383 28.2777 44.4713 28.4147 44.5044C28.4658 44.5168 28.517 44.5292 28.568 44.5374C28.6785 44.5622 28.7867 44.587 28.8952 44.6117C28.9505 44.6241 29.0077 44.6365 29.0629 44.6447C29.2081 44.6736 29.3553 44.7026 29.5005 44.7314C29.5475 44.7396 29.5944 44.7479 29.6416 44.7562C29.7622 44.7768 29.8849 44.7974 30.0075 44.8181C30.0526 44.8222 30.0976 44.8305 30.1425 44.8387C30.298 44.8593 30.4512 44.8841 30.6066 44.9047C30.6495 44.9088 30.6944 44.9129 30.7375 44.9213C30.8724 44.9378 31.0074 44.9502 31.1423 44.9667C31.1772 44.9708 31.2099 44.9749 31.2446 44.9791C31.4061 44.9956 31.5655 45.0081 31.7291 45.0204C31.77 45.0245 31.8109 45.0286 31.8518 45.0286C32.0031 45.041 32.1544 45.0492 32.3057 45.0575C32.3241 45.0616 32.3446 45.0616 32.3629 45.0616C32.5306 45.0698 32.6982 45.0781 32.8659 45.0822C32.9067 45.0822 32.9456 45.0822 32.9864 45.0863C33.1562 45.0904 33.3279 45.0904 33.4997 45.0904C33.6715 45.0904 33.8411 45.0904 34.0109 45.0863C34.0519 45.0821 34.0927 45.0821 34.1337 45.0821Z" fill="#434A54"/>
</svg>
